<mxfile host="app.diagrams.net" modified="2021-06-08T20:06:56.772Z" agent="5.0 (Windows NT 10.0; Win64; x64) AppleWebKit/537.36 (KHTML, like Gecko) Chrome/89.0.4389.128 Safari/537.36 OPR/75.0.3969.279" etag="Ffzym4alxl7Z1nQ-gQwC" version="14.7.6" type="github">
  <diagram id="R2lEEEUBdFMjLlhIrx00" name="Page-1">
    <mxGraphModel dx="1823" dy="548" grid="1" gridSize="10" guides="1" tooltips="1" connect="1" arrows="1" fold="1" page="1" pageScale="1" pageWidth="850" pageHeight="1100" math="0" shadow="0" extFonts="Permanent Marker^https://fonts.googleapis.com/css?family=Permanent+Marker">
      <root>
        <mxCell id="0" />
        <mxCell id="1" parent="0" />
        <mxCell id="hgkkattHW-qaeTxZL8pR-4" value="Venda" style="shape=rhombus;perimeter=rhombusPerimeter;whiteSpace=wrap;html=1;align=center;" vertex="1" parent="1">
          <mxGeometry x="370" y="250" width="120" height="60" as="geometry" />
        </mxCell>
        <mxCell id="hgkkattHW-qaeTxZL8pR-5" value="Cliente" style="rounded=1;arcSize=10;whiteSpace=wrap;html=1;align=center;glass=0;shadow=0;" vertex="1" parent="1">
          <mxGeometry x="100" y="260" width="100" height="40" as="geometry" />
        </mxCell>
        <mxCell id="hgkkattHW-qaeTxZL8pR-6" value="Funcionário" style="rounded=1;arcSize=10;whiteSpace=wrap;html=1;align=center;" vertex="1" parent="1">
          <mxGeometry x="660" y="260" width="100" height="40" as="geometry" />
        </mxCell>
        <mxCell id="hgkkattHW-qaeTxZL8pR-27" value="" style="endArrow=none;html=1;rounded=0;exitX=1;exitY=0.5;exitDx=0;exitDy=0;entryX=0;entryY=0.5;entryDx=0;entryDy=0;" edge="1" parent="1" source="hgkkattHW-qaeTxZL8pR-5" target="hgkkattHW-qaeTxZL8pR-4">
          <mxGeometry relative="1" as="geometry">
            <mxPoint x="240" y="280" as="sourcePoint" />
            <mxPoint x="350" y="270" as="targetPoint" />
          </mxGeometry>
        </mxCell>
        <mxCell id="hgkkattHW-qaeTxZL8pR-28" value="" style="endArrow=none;html=1;rounded=0;exitX=1;exitY=0.5;exitDx=0;exitDy=0;entryX=0;entryY=0.5;entryDx=0;entryDy=0;" edge="1" parent="1" source="hgkkattHW-qaeTxZL8pR-4" target="hgkkattHW-qaeTxZL8pR-6">
          <mxGeometry relative="1" as="geometry">
            <mxPoint x="490" y="280" as="sourcePoint" />
            <mxPoint x="620" y="279.5" as="targetPoint" />
          </mxGeometry>
        </mxCell>
        <mxCell id="hgkkattHW-qaeTxZL8pR-64" style="edgeStyle=orthogonalEdgeStyle;rounded=0;orthogonalLoop=1;jettySize=auto;html=1;exitX=1;exitY=1;exitDx=0;exitDy=0;entryX=0.25;entryY=0;entryDx=0;entryDy=0;endArrow=none;endFill=0;" edge="1" parent="1" source="hgkkattHW-qaeTxZL8pR-29" target="hgkkattHW-qaeTxZL8pR-5">
          <mxGeometry relative="1" as="geometry" />
        </mxCell>
        <mxCell id="hgkkattHW-qaeTxZL8pR-29" value="id_Cliente" style="ellipse;whiteSpace=wrap;html=1;align=center;shadow=0;glass=0;fillColor=#0050ef;strokeColor=#001DBC;fontColor=#ffffff;" vertex="1" parent="1">
          <mxGeometry x="-32.5" y="190" width="70" height="30" as="geometry" />
        </mxCell>
        <mxCell id="hgkkattHW-qaeTxZL8pR-65" style="edgeStyle=orthogonalEdgeStyle;rounded=0;orthogonalLoop=1;jettySize=auto;html=1;exitX=1;exitY=0.5;exitDx=0;exitDy=0;entryX=0;entryY=0;entryDx=0;entryDy=0;endArrow=none;endFill=0;" edge="1" parent="1" source="hgkkattHW-qaeTxZL8pR-30" target="hgkkattHW-qaeTxZL8pR-5">
          <mxGeometry relative="1" as="geometry">
            <Array as="points">
              <mxPoint x="100" y="245" />
            </Array>
          </mxGeometry>
        </mxCell>
        <mxCell id="hgkkattHW-qaeTxZL8pR-30" value="Nome" style="ellipse;whiteSpace=wrap;html=1;align=center;shadow=0;glass=0;" vertex="1" parent="1">
          <mxGeometry x="-32.5" y="230" width="60" height="30" as="geometry" />
        </mxCell>
        <mxCell id="hgkkattHW-qaeTxZL8pR-66" style="edgeStyle=orthogonalEdgeStyle;rounded=0;orthogonalLoop=1;jettySize=auto;html=1;exitX=1;exitY=0.5;exitDx=0;exitDy=0;entryX=0;entryY=0.5;entryDx=0;entryDy=0;endArrow=none;endFill=0;" edge="1" parent="1" source="hgkkattHW-qaeTxZL8pR-31" target="hgkkattHW-qaeTxZL8pR-5">
          <mxGeometry relative="1" as="geometry">
            <Array as="points">
              <mxPoint x="30" y="280" />
            </Array>
          </mxGeometry>
        </mxCell>
        <mxCell id="hgkkattHW-qaeTxZL8pR-31" value="CPF" style="ellipse;whiteSpace=wrap;html=1;align=center;shadow=0;glass=0;" vertex="1" parent="1">
          <mxGeometry x="-30" y="270" width="60" height="30" as="geometry" />
        </mxCell>
        <mxCell id="hgkkattHW-qaeTxZL8pR-67" style="edgeStyle=orthogonalEdgeStyle;rounded=0;orthogonalLoop=1;jettySize=auto;html=1;exitX=1;exitY=0.5;exitDx=0;exitDy=0;entryX=0;entryY=1;entryDx=0;entryDy=0;endArrow=none;endFill=0;" edge="1" parent="1" source="hgkkattHW-qaeTxZL8pR-32" target="hgkkattHW-qaeTxZL8pR-5">
          <mxGeometry relative="1" as="geometry" />
        </mxCell>
        <mxCell id="hgkkattHW-qaeTxZL8pR-32" value="Endereço" style="ellipse;whiteSpace=wrap;html=1;align=center;shadow=0;glass=0;" vertex="1" parent="1">
          <mxGeometry x="-30" y="310" width="65" height="30" as="geometry" />
        </mxCell>
        <mxCell id="hgkkattHW-qaeTxZL8pR-69" style="edgeStyle=orthogonalEdgeStyle;rounded=0;orthogonalLoop=1;jettySize=auto;html=1;exitX=1;exitY=0.5;exitDx=0;exitDy=0;entryX=0.5;entryY=1;entryDx=0;entryDy=0;endArrow=none;endFill=0;" edge="1" parent="1" source="hgkkattHW-qaeTxZL8pR-33" target="hgkkattHW-qaeTxZL8pR-5">
          <mxGeometry relative="1" as="geometry" />
        </mxCell>
        <mxCell id="hgkkattHW-qaeTxZL8pR-33" value="Bairro" style="ellipse;whiteSpace=wrap;html=1;align=center;shadow=0;glass=0;" vertex="1" parent="1">
          <mxGeometry x="-32.5" y="390" width="60" height="30" as="geometry" />
        </mxCell>
        <mxCell id="hgkkattHW-qaeTxZL8pR-68" style="edgeStyle=orthogonalEdgeStyle;rounded=0;orthogonalLoop=1;jettySize=auto;html=1;exitX=1;exitY=0.5;exitDx=0;exitDy=0;entryX=0.25;entryY=1;entryDx=0;entryDy=0;endArrow=none;endFill=0;" edge="1" parent="1" source="hgkkattHW-qaeTxZL8pR-34" target="hgkkattHW-qaeTxZL8pR-5">
          <mxGeometry relative="1" as="geometry" />
        </mxCell>
        <mxCell id="hgkkattHW-qaeTxZL8pR-34" value="Número" style="ellipse;whiteSpace=wrap;html=1;align=center;shadow=0;glass=0;" vertex="1" parent="1">
          <mxGeometry x="-30" y="350" width="60" height="30" as="geometry" />
        </mxCell>
        <mxCell id="hgkkattHW-qaeTxZL8pR-80" style="edgeStyle=orthogonalEdgeStyle;rounded=0;orthogonalLoop=1;jettySize=auto;html=1;exitX=1;exitY=0.5;exitDx=0;exitDy=0;entryX=0.75;entryY=0;entryDx=0;entryDy=0;endArrow=none;endFill=0;" edge="1" parent="1" source="hgkkattHW-qaeTxZL8pR-47" target="hgkkattHW-qaeTxZL8pR-6">
          <mxGeometry relative="1" as="geometry" />
        </mxCell>
        <mxCell id="hgkkattHW-qaeTxZL8pR-47" value="id_Funcionário" style="ellipse;whiteSpace=wrap;html=1;align=center;shadow=0;glass=0;fillColor=#0050ef;strokeColor=#001DBC;fontColor=#ffffff;" vertex="1" parent="1">
          <mxGeometry x="610" y="140" width="95" height="30" as="geometry" />
        </mxCell>
        <mxCell id="hgkkattHW-qaeTxZL8pR-81" style="edgeStyle=orthogonalEdgeStyle;rounded=0;orthogonalLoop=1;jettySize=auto;html=1;exitX=0;exitY=0.5;exitDx=0;exitDy=0;entryX=0.75;entryY=0;entryDx=0;entryDy=0;endArrow=none;endFill=0;" edge="1" parent="1" source="hgkkattHW-qaeTxZL8pR-48" target="hgkkattHW-qaeTxZL8pR-6">
          <mxGeometry relative="1" as="geometry" />
        </mxCell>
        <mxCell id="hgkkattHW-qaeTxZL8pR-48" value="Nome" style="ellipse;whiteSpace=wrap;html=1;align=center;shadow=0;glass=0;" vertex="1" parent="1">
          <mxGeometry x="770" y="190" width="60" height="30" as="geometry" />
        </mxCell>
        <mxCell id="hgkkattHW-qaeTxZL8pR-79" style="edgeStyle=orthogonalEdgeStyle;rounded=0;orthogonalLoop=1;jettySize=auto;html=1;exitX=0;exitY=0.5;exitDx=0;exitDy=0;endArrow=none;endFill=0;entryX=0.75;entryY=0;entryDx=0;entryDy=0;" edge="1" parent="1" source="hgkkattHW-qaeTxZL8pR-49" target="hgkkattHW-qaeTxZL8pR-6">
          <mxGeometry relative="1" as="geometry">
            <mxPoint x="719" y="240" as="targetPoint" />
          </mxGeometry>
        </mxCell>
        <mxCell id="hgkkattHW-qaeTxZL8pR-49" value="CPF" style="ellipse;whiteSpace=wrap;html=1;align=center;shadow=0;glass=0;" vertex="1" parent="1">
          <mxGeometry x="770" y="140" width="60" height="30" as="geometry" />
        </mxCell>
        <mxCell id="hgkkattHW-qaeTxZL8pR-82" style="edgeStyle=orthogonalEdgeStyle;rounded=0;orthogonalLoop=1;jettySize=auto;html=1;exitX=1;exitY=0.5;exitDx=0;exitDy=0;entryX=0.75;entryY=0;entryDx=0;entryDy=0;endArrow=none;endFill=0;" edge="1" parent="1" source="hgkkattHW-qaeTxZL8pR-50" target="hgkkattHW-qaeTxZL8pR-6">
          <mxGeometry relative="1" as="geometry" />
        </mxCell>
        <mxCell id="hgkkattHW-qaeTxZL8pR-50" value="Função" style="ellipse;whiteSpace=wrap;html=1;align=center;shadow=0;glass=0;" vertex="1" parent="1">
          <mxGeometry x="625" y="190" width="65" height="30" as="geometry" />
        </mxCell>
        <mxCell id="hgkkattHW-qaeTxZL8pR-70" style="edgeStyle=orthogonalEdgeStyle;rounded=0;orthogonalLoop=1;jettySize=auto;html=1;exitX=1;exitY=0.5;exitDx=0;exitDy=0;entryX=0.5;entryY=0;entryDx=0;entryDy=0;endArrow=none;endFill=0;" edge="1" parent="1" source="hgkkattHW-qaeTxZL8pR-59" target="hgkkattHW-qaeTxZL8pR-4">
          <mxGeometry relative="1" as="geometry" />
        </mxCell>
        <mxCell id="hgkkattHW-qaeTxZL8pR-59" value="id_Venda" style="ellipse;whiteSpace=wrap;html=1;align=center;shadow=0;glass=0;fillColor=#0050ef;strokeColor=#001DBC;fontColor=#ffffff;" vertex="1" parent="1">
          <mxGeometry x="280" y="150" width="85" height="30" as="geometry" />
        </mxCell>
        <mxCell id="hgkkattHW-qaeTxZL8pR-73" value="" style="edgeStyle=orthogonalEdgeStyle;rounded=0;orthogonalLoop=1;jettySize=auto;html=1;endArrow=none;endFill=0;" edge="1" parent="1" source="hgkkattHW-qaeTxZL8pR-60" target="hgkkattHW-qaeTxZL8pR-4">
          <mxGeometry relative="1" as="geometry" />
        </mxCell>
        <mxCell id="hgkkattHW-qaeTxZL8pR-60" value="Preço" style="ellipse;whiteSpace=wrap;html=1;align=center;shadow=0;glass=0;" vertex="1" parent="1">
          <mxGeometry x="492.5" y="200" width="60" height="30" as="geometry" />
        </mxCell>
        <mxCell id="hgkkattHW-qaeTxZL8pR-72" style="edgeStyle=orthogonalEdgeStyle;rounded=0;orthogonalLoop=1;jettySize=auto;html=1;exitX=0;exitY=0.5;exitDx=0;exitDy=0;endArrow=none;endFill=0;" edge="1" parent="1" source="hgkkattHW-qaeTxZL8pR-61">
          <mxGeometry relative="1" as="geometry">
            <mxPoint x="430" y="250" as="targetPoint" />
          </mxGeometry>
        </mxCell>
        <mxCell id="hgkkattHW-qaeTxZL8pR-61" value="Tipo_Marmita" style="ellipse;whiteSpace=wrap;html=1;align=center;shadow=0;glass=0;" vertex="1" parent="1">
          <mxGeometry x="480" y="150" width="90" height="30" as="geometry" />
        </mxCell>
        <mxCell id="hgkkattHW-qaeTxZL8pR-75" value="" style="edgeStyle=orthogonalEdgeStyle;rounded=0;orthogonalLoop=1;jettySize=auto;html=1;endArrow=none;endFill=0;" edge="1" parent="1" source="hgkkattHW-qaeTxZL8pR-62" target="hgkkattHW-qaeTxZL8pR-4">
          <mxGeometry relative="1" as="geometry" />
        </mxCell>
        <mxCell id="hgkkattHW-qaeTxZL8pR-62" value="id_Cliente" style="ellipse;whiteSpace=wrap;html=1;align=center;shadow=0;glass=0;" vertex="1" parent="1">
          <mxGeometry x="285" y="210" width="80" height="30" as="geometry" />
        </mxCell>
        <mxCell id="hgkkattHW-qaeTxZL8pR-85" style="edgeStyle=orthogonalEdgeStyle;rounded=0;orthogonalLoop=1;jettySize=auto;html=1;exitX=0.5;exitY=0;exitDx=0;exitDy=0;entryX=0.5;entryY=1;entryDx=0;entryDy=0;endArrow=none;endFill=0;" edge="1" parent="1" source="hgkkattHW-qaeTxZL8pR-83" target="hgkkattHW-qaeTxZL8pR-4">
          <mxGeometry relative="1" as="geometry">
            <Array as="points">
              <mxPoint x="250" y="370" />
              <mxPoint x="430" y="370" />
            </Array>
          </mxGeometry>
        </mxCell>
        <mxCell id="hgkkattHW-qaeTxZL8pR-83" value="relaçao_Pagamento_Venda" style="shape=rhombus;perimeter=rhombusPerimeter;whiteSpace=wrap;html=1;align=center;shadow=0;glass=0;" vertex="1" parent="1">
          <mxGeometry x="160" y="440" width="180" height="80" as="geometry" />
        </mxCell>
        <mxCell id="hgkkattHW-qaeTxZL8pR-86" style="edgeStyle=orthogonalEdgeStyle;rounded=0;orthogonalLoop=1;jettySize=auto;html=1;exitX=0.5;exitY=0;exitDx=0;exitDy=0;entryX=0.5;entryY=1;entryDx=0;entryDy=0;endArrow=none;endFill=0;" edge="1" parent="1" source="hgkkattHW-qaeTxZL8pR-84" target="hgkkattHW-qaeTxZL8pR-4">
          <mxGeometry relative="1" as="geometry" />
        </mxCell>
        <mxCell id="hgkkattHW-qaeTxZL8pR-84" value="relacao_Venda_Item" style="shape=rhombus;perimeter=rhombusPerimeter;whiteSpace=wrap;html=1;align=center;shadow=0;glass=0;" vertex="1" parent="1">
          <mxGeometry x="520" y="430" width="170" height="70" as="geometry" />
        </mxCell>
        <mxCell id="hgkkattHW-qaeTxZL8pR-90" style="edgeStyle=orthogonalEdgeStyle;rounded=0;orthogonalLoop=1;jettySize=auto;html=1;exitX=0;exitY=0.5;exitDx=0;exitDy=0;entryX=0.5;entryY=1;entryDx=0;entryDy=0;endArrow=none;endFill=0;" edge="1" parent="1" source="hgkkattHW-qaeTxZL8pR-88" target="hgkkattHW-qaeTxZL8pR-84">
          <mxGeometry relative="1" as="geometry" />
        </mxCell>
        <mxCell id="hgkkattHW-qaeTxZL8pR-88" value="Itens" style="rounded=1;arcSize=10;whiteSpace=wrap;html=1;align=center;shadow=0;glass=0;" vertex="1" parent="1">
          <mxGeometry x="640" y="580" width="100" height="40" as="geometry" />
        </mxCell>
        <mxCell id="hgkkattHW-qaeTxZL8pR-91" style="edgeStyle=orthogonalEdgeStyle;rounded=0;orthogonalLoop=1;jettySize=auto;html=1;exitX=1;exitY=0.5;exitDx=0;exitDy=0;entryX=0.5;entryY=1;entryDx=0;entryDy=0;endArrow=none;endFill=0;" edge="1" parent="1" source="hgkkattHW-qaeTxZL8pR-89" target="hgkkattHW-qaeTxZL8pR-83">
          <mxGeometry relative="1" as="geometry" />
        </mxCell>
        <mxCell id="hgkkattHW-qaeTxZL8pR-89" value="Forma_Pagamento" style="rounded=1;arcSize=10;whiteSpace=wrap;html=1;align=center;shadow=0;glass=0;" vertex="1" parent="1">
          <mxGeometry x="120" y="570" width="110" height="40" as="geometry" />
        </mxCell>
        <mxCell id="hgkkattHW-qaeTxZL8pR-97" style="edgeStyle=orthogonalEdgeStyle;rounded=0;orthogonalLoop=1;jettySize=auto;html=1;exitX=1;exitY=0.5;exitDx=0;exitDy=0;entryX=0;entryY=0.5;entryDx=0;entryDy=0;endArrow=none;endFill=0;" edge="1" parent="1" source="hgkkattHW-qaeTxZL8pR-92" target="hgkkattHW-qaeTxZL8pR-89">
          <mxGeometry relative="1" as="geometry" />
        </mxCell>
        <mxCell id="hgkkattHW-qaeTxZL8pR-92" value="Descrição" style="ellipse;whiteSpace=wrap;html=1;align=center;shadow=0;glass=0;" vertex="1" parent="1">
          <mxGeometry x="-50" y="600" width="90" height="30" as="geometry" />
        </mxCell>
        <mxCell id="hgkkattHW-qaeTxZL8pR-119" style="edgeStyle=orthogonalEdgeStyle;rounded=0;orthogonalLoop=1;jettySize=auto;html=1;exitX=0;exitY=0.5;exitDx=0;exitDy=0;endArrow=none;endFill=0;" edge="1" parent="1" source="hgkkattHW-qaeTxZL8pR-93">
          <mxGeometry relative="1" as="geometry">
            <mxPoint x="340" y="480" as="targetPoint" />
          </mxGeometry>
        </mxCell>
        <mxCell id="hgkkattHW-qaeTxZL8pR-93" value="id_Pagamento" style="ellipse;whiteSpace=wrap;html=1;align=center;shadow=0;glass=0;fillColor=#e3c800;strokeColor=#B09500;fontColor=#000000;" vertex="1" parent="1">
          <mxGeometry x="360" y="460" width="100" height="40" as="geometry" />
        </mxCell>
        <mxCell id="hgkkattHW-qaeTxZL8pR-96" style="edgeStyle=orthogonalEdgeStyle;rounded=0;orthogonalLoop=1;jettySize=auto;html=1;exitX=1;exitY=0.5;exitDx=0;exitDy=0;entryX=0;entryY=0;entryDx=0;entryDy=0;endArrow=none;endFill=0;" edge="1" parent="1" source="hgkkattHW-qaeTxZL8pR-94" target="hgkkattHW-qaeTxZL8pR-89">
          <mxGeometry relative="1" as="geometry">
            <Array as="points">
              <mxPoint x="120" y="560" />
            </Array>
          </mxGeometry>
        </mxCell>
        <mxCell id="hgkkattHW-qaeTxZL8pR-94" value="id_Pagamento" style="ellipse;whiteSpace=wrap;html=1;align=center;shadow=0;glass=0;fillColor=#0050ef;strokeColor=#001DBC;fontColor=#ffffff;" vertex="1" parent="1">
          <mxGeometry x="-47.5" y="540" width="87.5" height="30" as="geometry" />
        </mxCell>
        <mxCell id="hgkkattHW-qaeTxZL8pR-120" style="edgeStyle=orthogonalEdgeStyle;rounded=0;orthogonalLoop=1;jettySize=auto;html=1;exitX=0;exitY=0.5;exitDx=0;exitDy=0;entryX=1;entryY=0.5;entryDx=0;entryDy=0;endArrow=none;endFill=0;" edge="1" parent="1" source="hgkkattHW-qaeTxZL8pR-95" target="hgkkattHW-qaeTxZL8pR-83">
          <mxGeometry relative="1" as="geometry">
            <Array as="points">
              <mxPoint x="340" y="535" />
            </Array>
          </mxGeometry>
        </mxCell>
        <mxCell id="hgkkattHW-qaeTxZL8pR-95" value="id_Venda" style="ellipse;whiteSpace=wrap;html=1;align=center;shadow=0;glass=0;fillColor=#e3c800;strokeColor=#B09500;fontColor=#000000;" vertex="1" parent="1">
          <mxGeometry x="360" y="515" width="100" height="40" as="geometry" />
        </mxCell>
        <mxCell id="hgkkattHW-qaeTxZL8pR-123" style="edgeStyle=orthogonalEdgeStyle;rounded=0;orthogonalLoop=1;jettySize=auto;html=1;exitX=0;exitY=0.5;exitDx=0;exitDy=0;entryX=1;entryY=0.5;entryDx=0;entryDy=0;endArrow=none;endFill=0;" edge="1" parent="1" source="hgkkattHW-qaeTxZL8pR-100" target="hgkkattHW-qaeTxZL8pR-84">
          <mxGeometry relative="1" as="geometry">
            <Array as="points">
              <mxPoint x="690" y="520" />
            </Array>
          </mxGeometry>
        </mxCell>
        <mxCell id="hgkkattHW-qaeTxZL8pR-100" value="id_Venda" style="ellipse;whiteSpace=wrap;html=1;align=center;shadow=0;glass=0;fillColor=#e3c800;strokeColor=#B09500;fontColor=#000000;" vertex="1" parent="1">
          <mxGeometry x="705" y="500" width="100" height="40" as="geometry" />
        </mxCell>
        <mxCell id="hgkkattHW-qaeTxZL8pR-122" style="edgeStyle=orthogonalEdgeStyle;rounded=0;orthogonalLoop=1;jettySize=auto;html=1;exitX=0;exitY=0.5;exitDx=0;exitDy=0;entryX=1;entryY=0.5;entryDx=0;entryDy=0;endArrow=none;endFill=0;" edge="1" parent="1" source="hgkkattHW-qaeTxZL8pR-101" target="hgkkattHW-qaeTxZL8pR-84">
          <mxGeometry relative="1" as="geometry" />
        </mxCell>
        <mxCell id="hgkkattHW-qaeTxZL8pR-101" value="id_Item" style="ellipse;whiteSpace=wrap;html=1;align=center;shadow=0;glass=0;fillColor=#e3c800;strokeColor=#B09500;fontColor=#000000;" vertex="1" parent="1">
          <mxGeometry x="705" y="445" width="100" height="40" as="geometry" />
        </mxCell>
        <mxCell id="hgkkattHW-qaeTxZL8pR-121" style="edgeStyle=orthogonalEdgeStyle;rounded=0;orthogonalLoop=1;jettySize=auto;html=1;exitX=0;exitY=0.5;exitDx=0;exitDy=0;entryX=1;entryY=0.5;entryDx=0;entryDy=0;endArrow=none;endFill=0;" edge="1" parent="1" source="hgkkattHW-qaeTxZL8pR-102" target="hgkkattHW-qaeTxZL8pR-84">
          <mxGeometry relative="1" as="geometry">
            <Array as="points">
              <mxPoint x="690" y="410" />
            </Array>
          </mxGeometry>
        </mxCell>
        <mxCell id="hgkkattHW-qaeTxZL8pR-102" value="&lt;span style=&quot;color: rgb(255 , 255 , 255)&quot;&gt;id_Item_Venda&lt;/span&gt;" style="ellipse;whiteSpace=wrap;html=1;align=center;shadow=0;glass=0;fillColor=#0050ef;strokeColor=#001DBC;fontColor=#ffffff;" vertex="1" parent="1">
          <mxGeometry x="700" y="390" width="100" height="40" as="geometry" />
        </mxCell>
        <mxCell id="hgkkattHW-qaeTxZL8pR-116" style="edgeStyle=orthogonalEdgeStyle;rounded=0;orthogonalLoop=1;jettySize=auto;html=1;exitX=0.5;exitY=0;exitDx=0;exitDy=0;entryX=0.5;entryY=1;entryDx=0;entryDy=0;endArrow=none;endFill=0;" edge="1" parent="1" source="hgkkattHW-qaeTxZL8pR-103" target="hgkkattHW-qaeTxZL8pR-88">
          <mxGeometry relative="1" as="geometry" />
        </mxCell>
        <mxCell id="hgkkattHW-qaeTxZL8pR-103" value="Classificação" style="ellipse;whiteSpace=wrap;html=1;align=center;shadow=0;glass=0;" vertex="1" parent="1">
          <mxGeometry x="550" y="660" width="85" height="30" as="geometry" />
        </mxCell>
        <mxCell id="hgkkattHW-qaeTxZL8pR-114" style="edgeStyle=orthogonalEdgeStyle;rounded=0;orthogonalLoop=1;jettySize=auto;html=1;exitX=0.5;exitY=0;exitDx=0;exitDy=0;entryX=0.5;entryY=1;entryDx=0;entryDy=0;endArrow=none;endFill=0;" edge="1" parent="1" source="hgkkattHW-qaeTxZL8pR-104" target="hgkkattHW-qaeTxZL8pR-88">
          <mxGeometry relative="1" as="geometry" />
        </mxCell>
        <mxCell id="hgkkattHW-qaeTxZL8pR-104" value="id_Item" style="ellipse;whiteSpace=wrap;html=1;align=center;shadow=0;glass=0;fillColor=#0050ef;strokeColor=#001DBC;fontColor=#ffffff;" vertex="1" parent="1">
          <mxGeometry x="660" y="660" width="60" height="30" as="geometry" />
        </mxCell>
        <mxCell id="hgkkattHW-qaeTxZL8pR-115" style="edgeStyle=orthogonalEdgeStyle;rounded=0;orthogonalLoop=1;jettySize=auto;html=1;exitX=0.5;exitY=0;exitDx=0;exitDy=0;entryX=0.5;entryY=1;entryDx=0;entryDy=0;endArrow=none;endFill=0;" edge="1" parent="1" source="hgkkattHW-qaeTxZL8pR-105" target="hgkkattHW-qaeTxZL8pR-88">
          <mxGeometry relative="1" as="geometry" />
        </mxCell>
        <mxCell id="hgkkattHW-qaeTxZL8pR-105" value="Descrição" style="ellipse;whiteSpace=wrap;html=1;align=center;shadow=0;glass=0;" vertex="1" parent="1">
          <mxGeometry x="750" y="660" width="70" height="30" as="geometry" />
        </mxCell>
        <mxCell id="hgkkattHW-qaeTxZL8pR-118" style="edgeStyle=orthogonalEdgeStyle;rounded=0;orthogonalLoop=1;jettySize=auto;html=1;exitX=0;exitY=0.5;exitDx=0;exitDy=0;endArrow=none;endFill=0;" edge="1" parent="1" source="hgkkattHW-qaeTxZL8pR-117" target="hgkkattHW-qaeTxZL8pR-83">
          <mxGeometry relative="1" as="geometry">
            <Array as="points">
              <mxPoint x="340" y="425" />
            </Array>
          </mxGeometry>
        </mxCell>
        <mxCell id="hgkkattHW-qaeTxZL8pR-117" value="id_Pagamento_Venda" style="ellipse;whiteSpace=wrap;html=1;align=center;shadow=0;glass=0;fillColor=#0050ef;strokeColor=#001DBC;fontColor=#ffffff;" vertex="1" parent="1">
          <mxGeometry x="360" y="405" width="140" height="40" as="geometry" />
        </mxCell>
      </root>
    </mxGraphModel>
  </diagram>
</mxfile>
